<?xml version="1.0" standalone="no"?>
<!DOCTYPE svg PUBLIC "-//W3C//DTD SVG 20010904//EN"
 "http://www.w3.org/TR/2001/REC-SVG-20010904/DTD/svg10.dtd">
<svg version="1.0" xmlns="http://www.w3.org/2000/svg"
 width="73.000000pt" height="73.000000pt" viewBox="0 0 73.000000 73.000000"
 preserveAspectRatio="xMidYMid meet">
<metadata>
Created by potrace 1.14, written by Peter Selinger 2001-2017
</metadata>
<g transform="translate(0.000000,73.000000) scale(0.100000,-0.100000)"
fill="#000000" stroke="none">
<path d="M120 600 l0 -129 57 -3 57 -3 1 -37 c0 -21 -4 -39 -10 -41 -5 -2 -58
-3 -117 -2 l-108 0 0 -130 0 -130 57 0 58 0 3 -57 3 -58 129 0 130 0 0 115 0
115 45 0 44 0 3 -57 3 -58 128 0 127 -1 0 133 0 133 -50 -4 c-58 -4 -68 5 -65
54 4 55 -2 60 -61 60 l-54 0 0 60 0 60 -60 0 -60 0 0 55 0 55 -130 0 -130 0 0
-130z m231 93 c6 -70 8 -68 -56 -73 l-60 -5 0 -55 0 -55 -42 -3 -43 -3 0 100
c0 58 4 101 10 103 6 2 51 3 100 3 65 0 90 -4 91 -12z m3 -145 l-1 -43 -45 -3
-45 -3 1 46 0 45 46 0 45 0 -1 -42z m116 -3 l0 -45 -45 0 -44 0 1 45 1 45 43
0 44 0 0 -45z m-116 -107 c-6 -50 -10 -55 -41 -52 -15 1 -33 2 -39 3 -6 1 -11
19 -12 41 l-2 40 49 0 48 0 -3 -32z m114 -10 c-3 -41 -3 -41 -43 -42 l-40 -1
-3 43 -3 42 46 0 46 0 -3 -42z m120 0 c-3 -41 -3 -41 -43 -42 l-40 -1 -3 43
-3 42 46 0 46 0 -3 -42z m-353 -115 l1 -43 -57 0 -58 0 -3 -57 -3 -58 -42 -1
-43 -2 0 104 0 105 102 -3 102 -3 1 -42z m119 20 c-1 -16 -3 -36 -3 -46 -1
-15 -8 -18 -43 -15 -40 3 -43 5 -45 33 -3 48 3 55 50 55 40 0 43 -1 41 -27z
m116 -18 l0 -45 -45 0 -45 0 2 45 1 45 44 0 43 0 0 -45z m120 0 l0 -45 -45 0
-45 0 0 45 0 45 45 0 45 0 0 -45z m115 -45 c1 -121 3 -118 -107 -116 l-93 1
-3 43 -3 42 55 0 c37 0 56 4 57 13 1 6 3 30 4 52 1 22 3 44 4 48 0 5 20 7 43
5 l42 -3 1 -85z m-472 -65 c0 -16 -1 -35 -2 -41 0 -6 -19 -11 -41 -11 l-40 0
0 44 0 44 42 -3 c40 -3 42 -5 41 -33z m122 -62 c0 -69 -4 -100 -13 -103 -7 -3
-52 -5 -100 -5 l-87 1 -3 46 -3 46 51 -3 c59 -3 68 9 64 78 l-2 37 47 0 46 0
0 -97z"/>
</g>
</svg>
