<?xml version="1.0" standalone="no"?>
<!DOCTYPE svg PUBLIC "-//W3C//DTD SVG 20010904//EN"
 "http://www.w3.org/TR/2001/REC-SVG-20010904/DTD/svg10.dtd">
<svg version="1.0" xmlns="http://www.w3.org/2000/svg"
 width="79.000000pt" height="79.000000pt" viewBox="0 0 79.000000 79.000000"
 preserveAspectRatio="xMidYMid meet">
<metadata>
Created by potrace 1.14, written by Peter Selinger 2001-2017
</metadata>
<g transform="translate(0.000000,79.000000) scale(0.100000,-0.100000)"
fill="#000000" stroke="none">
<path d="M168 663 l-3 -88 -72 0 c-43 0 -73 -4 -74 -10 -7 -56 -3 -493 4 -502
6 -8 35 -13 78 -13 l69 0 2 262 3 263 68 0 c38 0 71 -4 74 -9 3 -5 6 -123 6
-263 l-1 -254 77 3 76 3 0 258 c0 222 2 257 15 258 8 1 42 1 75 2 l60 0 3
-261 2 -262 59 0 c99 0 91 -25 91 289 0 247 -2 280 -19 317 -21 46 -59 80
-101 89 -25 6 -34 1 -62 -31 -18 -21 -50 -56 -70 -78 -21 -23 -38 -44 -38 -48
0 -5 -4 -8 -10 -8 -5 0 -10 12 -10 26 0 41 -38 99 -80 123 -31 17 -55 21 -128
21 l-91 0 -3 -87z"/>
</g>
</svg>
