<svg width="20" height="18" viewBox="0 0 20 18" fill="none" xmlns="http://www.w3.org/2000/svg">
<path fill-rule="evenodd" clip-rule="evenodd" d="M18.9669 12.8199C18.4911 12.5892 16.0777 11.4357 15.6358 11.271C15.16 11.1062 14.854 11.0073 14.5141 11.5016C14.1742 11.963 13.2565 13.0506 12.9505 13.3801C12.6786 13.6767 12.3727 13.7427 11.8968 13.479C11.387 13.2483 9.82338 12.754 7.91989 11.1062C6.45828 9.85385 5.47254 8.27196 5.16662 7.81057C4.89469 7.31623 5.13263 7.08554 5.37057 6.82189C5.6085 6.62416 5.84644 6.26164 6.11837 5.99799C6.3563 5.73435 6.45828 5.53661 6.62823 5.20705C6.79819 4.91045 6.7302 4.61384 6.59424 4.38315C6.49227 4.15246 5.50653 1.77962 5.09864 0.8239C4.69075 -0.098868 4.28286 0.032956 3.97694 0C3.70501 0 3.3651 0 3.02519 0C2.71927 0 2.17542 0.131824 1.73354 0.593208C1.25766 1.08755 0 2.24101 0 4.58088C0 6.92076 1.76753 9.19473 2.00546 9.52429C2.2434 9.85385 5.47254 14.6654 10.4012 16.7417C11.5909 17.236 12.5087 17.5326 13.2225 17.7303C14.4122 18.0928 15.4659 18.0269 16.3156 17.8951C17.2674 17.7633 19.2389 16.7416 19.6468 15.6211C20.0546 14.5336 20.0546 13.5779 19.9187 13.3801C19.8167 13.1824 19.4768 13.0506 18.9669 12.8199Z" fill="#FF3C01"/>
</svg>
