<svg width="24" height="18" viewBox="0 0 24 18" fill="none" xmlns="http://www.w3.org/2000/svg">
<path d="M23.498 3.1859C23.222 2.1469 22.409 1.3279 21.376 1.0499C19.505 0.545899 12 0.545898 12 0.545898C12 0.545898 4.495 0.545899 2.623 1.0499C1.591 1.3279 0.778 2.1459 0.502 3.1859C0 5.0699 0 8.9999 0 8.9999C0 8.9999 0 12.9299 0.502 14.8139C0.778 15.8529 1.591 16.6719 2.624 16.9499C4.495 17.4539 12 17.4539 12 17.4539C12 17.4539 19.505 17.4539 21.377 16.9499C22.409 16.6719 23.222 15.8539 23.499 14.8139C24 12.9299 24 8.9999 24 8.9999C24 8.9999 24 5.0699 23.498 3.1859ZM9.546 12.5689V5.4309L15.818 8.9999L9.546 12.5689Z" fill="#253E4F"/>
</svg>
