<svg width="871" height="349" fill="none" xmlns="http://www.w3.org/2000/svg"><path d="M18.2 18.2A62.125 62.125 0 0 0 0 62.2v186.5h62.2V62.2h186.5V0H62.2C45 0 29.5 6.9 18.2 18.2Z" fill="#AB1918"/><path d="M248.7 124.3H124.3l-62.1 62.2h124.3l62.2-62.2Zm217.6-62.2V0H342c-17.2 0-32.7 7-44 18.2a62.125 62.125 0 0 0-18.2 44v186.5H342V62.2h124.3v-.1Z" fill="#AB1918"/><path d="M466.3 124.3h-62.2l-62.2 62.2h124.3c34.4 0 62.2-27.9 62.2-62.2V62.1h-62.2v62.2h.1Zm155.4-62.2h-62.2v186.5h62.2V62.1Z" fill="#AB1918"/><path d="M683.9 0h-62.2v62.2h62.2v186.5h62.2V62.2c0-34.4-27.8-62.2-62.2-62.2Z" fill="#AB1918"/><path d="M808.2 0 746 62.2h62.2v186.5h62.2V62.2c0-34.4-27.8-62.2-62.2-62.2Z" fill="#AB1918"/><path d="M407.8 279.5h14.1v67.7h-10.4v-55l-25.1 49.3h-9l-25.1-49.1v54.8h-10.4v-67.7h14l25.9 51.1 26-51.1Zm76.6 67.7-6.4-16h-33l-6.4 16h-11.3l28.7-67.7h11.2l28.7 67.7h-11.5ZM448 323.5h26.9l-13.5-33.6-13.4 33.6Zm30.2-63.8-13.6 13.7h-6.4l10.6-13.7h9.4Zm86.7 89.3-8.7-7.1c-6.2 4.1-14.2 6.4-23.6 6.4-23.4 0-38.1-13.7-38.1-35s14.7-35.1 38.1-35.1c23.6 0 38.2 13.8 38.2 35.1 0 9.6-3 18-8.6 23.9l7.8 6.5-5.1 5.3Zm-16.8-12.9-16.6-14 5.5-5.2 17.2 14.5c4-4.3 6.1-10.5 6.1-18 0-16.6-10.3-27.1-27.8-27.1s-27.7 10.5-27.7 27.1 10.2 27 27.7 27c6 0 11.4-1.5 15.6-4.3Zm30.7-13.4v-43.2h10.4v40.9c0 11.3 5.8 18.8 20.5 18.8s20.8-7.6 20.8-18.9v-40.8h10.4v42.7c0 17-10.9 26.1-31.2 26.1-20.1.1-30.9-8.9-30.9-25.6Zm72.3 24.5v-67.7h10.4v67.7h-10.4Zm71.8-67.7h10.5v67.7h-10.1l-40.4-52.9v52.9h-10.3v-67.7h9.9l40.4 52.7v-52.7Zm72.9 67.7-6.4-16h-33l-6.4 16h-11.3l28.7-67.7h11.2l28.7 67.7h-11.5Zm-36.3-23.7h26.9l-13.5-33.6-13.4 33.6Zm48.1 5.3 10.2-2.1c3.1 8.9 12.1 13.7 24.3 13.7 12.4 0 18.1-4.4 18.1-11.5 0-7.7-7.5-9.6-20.1-11.9-13.9-2.3-27.4-5.1-27.4-19.6 0-11.9 10.6-19.1 26.2-19.1 12.3 0 21.1 3.5 28.1 11l-6.8 5.6c-5.1-5.5-12.6-8.6-22-8.6-9.2 0-15.2 3.9-15.2 10.2 0 7.1 7.2 8.9 19.6 11.3 12.2 2.3 27.8 5.2 27.8 20.1 0 12-8.6 20.5-28.5 20.5-20.7 0-30.6-7.9-34.3-19.6Z" fill="#27376C"/></svg>