<svg version="1.0" xmlns="http://www.w3.org/2000/svg" width="102.667" height="102.667" viewBox="0 0 77 77"><path d="M49 12.3c-4.7 4.6-9.5 8.6-10.7 8.9-1.6.4-3.4-.5-6.9-3.8-4-3.8-5.3-4.4-9-4.4-2.5 0-4.4.5-4.4 1.1 0 1.7 12.5 13.8 15.4 14.9 1.5.5 3.7.8 4.9.6 1.2-.3 2.8-.5 3.4-.5 1.8-.1 16.2-14.6 17.1-17.2.9-2.3.4-7.9-.7-7.9-.3 0-4.4 3.8-9.1 8.3zM0 13.9c0 4.9.1 5 9.5 14.5C15.3 34.2 19 38.7 19 40c0 1.1-1.9 4.1-4.2 6.5-3.5 3.7-4.3 5.3-4.4 8.5-.1 2.2.2 4.3.7 4.6 1.5.9 14.6-13.3 15.3-16.6 1.2-6.3-.2-8.7-13-21.6C6.7 14.6.9 9 .6 9 .3 9 0 11.2 0 13.9zm57.2 11.7c-8.1 8.3-9.2 11-8.3 19 .2 1.6 25.6 27.4 27 27.4.6 0 1.1-1.8 1.1-4.5 0-4.4-.2-4.8-11-15.6-12.4-12.4-12.2-11.7-4.8-19.2 3.4-3.5 3.9-4.5 3.6-8-.2-2.2-.7-4.2-1.3-4.3-.5-.1-3.4 2.2-6.3 5.2zM32.7 51.5c-4.1 2.1-16.5 15.2-16.9 17.7-.5 3.2.3 6.8 1.3 6.8.5 0 5-4.1 9.9-9 4.9-5 9.6-9 10.4-9 .9 0 3.6 1.9 6.1 4.2 4.5 4.2 8.3 5.8 11.8 5 2.8-.7 2-2.1-5-8.9-8.7-8.5-12-9.8-17.6-6.8z"/></svg>