<svg width="871" height="349" viewBox="0 0 871 349" fill="none" xmlns="http://www.w3.org/2000/svg">
<path d="M18.2 18.2C6.99995 29.4 0 45 0 62.2V248.7H62.2V186.5V62.2H248.7V0H62.2C45 0 29.5 6.90001 18.2 18.2Z" fill="#AB1918"/>
<path d="M248.7 124.3H124.3L62.2 186.5H186.5L248.7 124.3Z" fill="#AB1918"/>
<path d="M466.3 62.1V0H342C324.8 0 309.3 7.00001 298 18.2C286.8 29.4 279.8 45 279.8 62.2V248.7H342V186.5V62.2H466.3V62.1Z" fill="#AB1918"/>
<path d="M466.3 124.3H404.1L341.9 186.5H466.2C500.6 186.5 528.4 158.6 528.4 124.3V62.1001H466.2V124.3H466.3Z" fill="#AB1918"/>
<path d="M621.7 62.1001H559.5V248.6H621.7V62.1001Z" fill="#AB1918"/>
<path d="M683.9 0H621.7V62.2H683.9V248.7H746.1V62.2C746.1 27.8 718.3 0 683.9 0Z" fill="#AB1918"/>
<path d="M808.2 0L746 62.2H808.2V248.7H870.4V62.2C870.4 27.8 842.6 0 808.2 0Z" fill="#AB1918"/>
<path d="M407.8 279.5H421.9V347.2H411.5V292.2L386.4 341.5H377.4L352.3 292.4V347.2H341.9V279.5H355.9L381.8 330.6L407.8 279.5Z" fill="#27376C"/>
<path d="M484.4 347.2L478 331.2H445L438.6 347.2H427.3L456 279.5H467.2L495.9 347.2H484.4ZM448 323.5H474.9L461.4 289.9L448 323.5ZM478.2 259.7L464.6 273.4H458.2L468.8 259.7H478.2Z" fill="#27376C"/>
<path d="M564.9 349L556.2 341.9C550 346 542 348.3 532.6 348.3C509.2 348.3 494.5 334.6 494.5 313.3C494.5 292 509.2 278.2 532.6 278.2C556.2 278.2 570.8 292 570.8 313.3C570.8 322.9 567.8 331.3 562.2 337.2L570 343.7L564.9 349ZM548.1 336.1L531.5 322.1L537 316.9L554.2 331.4C558.2 327.1 560.3 320.9 560.3 313.4C560.3 296.8 550 286.3 532.5 286.3C515 286.3 504.8 296.8 504.8 313.4C504.8 330 515 340.4 532.5 340.4C538.5 340.4 543.9 338.9 548.1 336.1Z" fill="#27376C"/>
<path d="M578.8 322.7V279.5H589.2V320.4C589.2 331.7 595 339.2 609.7 339.2C624.4 339.2 630.5 331.6 630.5 320.3V279.5H640.9V322.2C640.9 339.2 630 348.3 609.7 348.3C589.6 348.4 578.8 339.4 578.8 322.7Z" fill="#27376C"/>
<path d="M651.1 347.2V279.5H661.5V347.2H651.1Z" fill="#27376C"/>
<path d="M722.9 279.5H733.4V347.2H723.3L682.9 294.3V347.2H672.6V279.5H682.5L722.9 332.2V279.5Z" fill="#27376C"/>
<path d="M795.8 347.2L789.4 331.2H756.4L750 347.2H738.7L767.4 279.5H778.6L807.3 347.2H795.8ZM759.5 323.5H786.4L772.9 289.9L759.5 323.5Z" fill="#27376C"/>
<path d="M807.6 328.8L817.8 326.7C820.9 335.6 829.9 340.4 842.1 340.4C854.5 340.4 860.2 336 860.2 328.9C860.2 321.2 852.7 319.3 840.1 317C826.2 314.7 812.7 311.9 812.7 297.4C812.7 285.5 823.3 278.3 838.9 278.3C851.2 278.3 860 281.8 867 289.3L860.2 294.9C855.1 289.4 847.6 286.3 838.2 286.3C829 286.3 823 290.2 823 296.5C823 303.6 830.2 305.4 842.6 307.8C854.8 310.1 870.4 313 870.4 327.9C870.4 339.9 861.8 348.4 841.9 348.4C821.2 348.4 811.3 340.5 807.6 328.8Z" fill="#27376C"/>
</svg>
