<?xml version="1.0" standalone="no"?>
<!DOCTYPE svg PUBLIC "-//W3C//DTD SVG 20010904//EN"
 "http://www.w3.org/TR/2001/REC-SVG-20010904/DTD/svg10.dtd">
<svg version="1.0" xmlns="http://www.w3.org/2000/svg"
 width="77.000000pt" height="77.000000pt" viewBox="0 0 77.000000 77.000000"
 preserveAspectRatio="xMidYMid meet">
<metadata>
Created by potrace 1.14, written by Peter Selinger 2001-2017
</metadata>
<g transform="translate(0.000000,77.000000) scale(0.100000,-0.100000)"
fill="#000000" stroke="none">
<path d="M490 647 c-47 -46 -95 -86 -107 -89 -16 -4 -34 5 -69 38 -40 38 -53
44 -90 44 -25 0 -44 -5 -44 -11 0 -17 125 -138 154 -149 15 -5 37 -8 49 -6 12
3 28 5 34 5 18 1 162 146 171 172 9 23 4 79 -7 79 -3 0 -44 -38 -91 -83z"/>
<path d="M0 631 c0 -49 1 -50 95 -145 58 -58 95 -103 95 -116 0 -11 -19 -41
-42 -65 -35 -37 -43 -53 -44 -85 -1 -22 2 -43 7 -46 15 -9 146 133 153 166 12
63 -2 87 -130 216 -67 68 -125 124 -128 124 -3 0 -6 -22 -6 -49z"/>
<path d="M572 514 c-81 -83 -92 -110 -83 -190 2 -16 256 -274 270 -274 6 0 11
18 11 45 0 44 -2 48 -110 156 -124 124 -122 117 -48 192 34 35 39 45 36 80 -2
22 -7 42 -13 43 -5 1 -34 -22 -63 -52z"/>
<path d="M327 255 c-41 -21 -165 -152 -169 -177 -5 -32 3 -68 13 -68 5 0 50
41 99 90 49 50 96 90 104 90 9 0 36 -19 61 -42 45 -42 83 -58 118 -50 28 7 20
21 -50 89 -87 85 -120 98 -176 68z"/>
</g>
</svg>
