<svg version="1.0" xmlns="http://www.w3.org/2000/svg" width="105.333" height="105.333" viewBox="0 0 79 79"><path d="m16.8 12.7-.3 8.8H9.3c-4.3 0-7.3.4-7.4 1-.7 5.6-.3 49.3.4 50.2.6.8 3.5 1.3 7.8 1.3H17l.2-26.2.3-26.3h6.8c3.8 0 7.1.4 7.4.9.3.5.6 12.3.6 26.3l-.1 25.4 7.7-.3 7.6-.3V47.7c0-22.2.2-25.7 1.5-25.8.8-.1 4.2-.1 7.5-.2h6l.3 26.1L63 74h5.9c9.9 0 9.1 2.5 9.1-28.9 0-24.7-.2-28-1.9-31.7-2.1-4.6-5.9-8-10.1-8.9-2.5-.6-3.4-.1-6.2 3.1-1.8 2.1-5 5.6-7 7.8-2.1 2.3-3.8 4.4-3.8 4.8 0 .5-.4.8-1 .8-.5 0-1-1.2-1-2.6 0-4.1-3.8-9.9-8-12.3C35.9 4.4 33.5 4 26.2 4h-9.1l-.3 8.7z"/></svg>