<svg width="307" height="409" viewBox="0 0 307 409" fill="none" xmlns="http://www.w3.org/2000/svg">
<path d="M306.7 163.5C306.7 156.6 303.3 153.4 296.3 153.3C288.6 153.3 280.9 153.3 272.6 153.3V148.8C272.6 138.2 272.6 127.5 272.5 116.9C271.7 62.4 233.2 15 180.5 3.29996C136.9 -6.30004 98.9 5.09996 67.6 36.8C44.7 60 34.1 88.7 34.1 121.3C34.1 131.8 34.1 142.3 34.1 153.3C26.6 153.3 19.5 153.3 12.4 153.3C2.5 153.3 0 155.8 0 165.9C0 234.8 0 303.8 0 372.7C0 387.4 6.1 398.7 19.4 405.4C22.8 407.1 26.7 407.8 30.3 408.9H276.3C281.8 406.7 287.8 405.3 292.6 402C302.3 395.5 306.6 385.5 306.6 373.9C306.7 303.7 306.7 233.6 306.7 163.5ZM173.9 285.2C175.4 299.8 177 314.3 178.7 328.8C179.6 336.6 176.2 340.6 168.2 340.7C163.2 340.8 158.1 340.7 153 340.7C148 340.7 142.9 340.8 137.8 340.7C130.6 340.5 127.1 336.5 127.9 329.4C129.5 314.7 131.2 300.1 132.7 285.4C132.8 284.1 132.1 282.3 131.1 281.4C121.1 272.4 117.2 261.2 120 248.3C123 234.7 131.9 226.1 145.4 222.4C164.3 217.3 184.9 231.9 186.8 251.3C188 263.5 184.1 273.4 175 281.6C174.4 282.4 173.7 284 173.9 285.2ZM221.3 153.2H86C85.8 152.9 85.4 152.7 85.4 152.5C85.8 135.5 82.9 118.3 87.7 101.7C95.3 74.9 113.2 57.9 140.5 52.6C167.5 47.3 190.1 56.5 207.3 77.9C216.4 89.2 221.1 102.4 221.3 117C221.5 128.9 221.3 140.9 221.3 153.2Z" fill="black"/>
</svg>
