<svg width="1182" height="540" fill="none" xmlns="http://www.w3.org/2000/svg"><path d="M833.786 581.021c11.325 11.332 3.261 30.655-12.773 30.655h-67.886a61.302 61.302 0 0 1-43.3-17.917l-84.623-84.568-.055.055c-18.848-18.837-49.307-18.891-68.278-.055L348.113 717.703c-11.339 11.318-30.715 3.3-30.715-12.724V639.64a67.484 67.484 0 0 1 19.782-47.733l151.17-151.07s.013 0 .013-.014c55.762-55.724 145.704-56.63 202.548-2.569.663.568 93.229 93.127 142.875 142.767Zm-342.73-479.306c56.844 54.061 146.786 53.155 202.547-2.57l151.17-151.083a67.488 67.488 0 0 0 19.783-47.733v-65.312c0-16.024-19.377-24.042-30.716-12.711L637.936 18.08c-25.925 25.909-67.966 25.909-93.906 0l-71.85-71.803a61.214 61.214 0 0 0-43.272-17.916l-67.94-.028c-16.034-.013-24.113 19.324-12.773 30.655 49.659 49.627 142.198 142.159 142.861 142.727Zm339.279 202.48c-18.551-18.538-18.848-48.26-1.082-67.218l85.665-85.717a61.188 61.188 0 0 0 17.902-43.244V40.054c0-16.024-19.376-24.043-30.715-12.711l-127.45 127.365c-63.705 63.662-63.705 166.877 0 230.539l275.185 275a67.566 67.566 0 0 0 47.76 19.77h65.37c16.04 0 24.06-19.364 12.72-30.695L830.335 304.195ZM407.298 154.708 132.13-120.265a67.533 67.533 0 0 0-47.792-19.77l-65.315.028c-16.034 0-24.045 19.363-12.72 30.695L338.9 223.062c25.925 25.909 25.925 67.922 0 93.844l-71.851 71.803a61.16 61.16 0 0 0-17.928 43.271v67.935c0 16.024 19.376 24.043 30.715 12.711l127.45-127.365c63.718-63.663 63.718-166.891.013-230.553Z" stroke="#86A3B7"/></svg>