<svg width="577" height="277" fill="none" xmlns="http://www.w3.org/2000/svg"><path d="M406.807 290.048c5.519 5.503 1.589 14.887-6.225 14.887h-33.079a29.922 29.922 0 0 1-21.1-8.701l-41.236-41.07-.026.026c-9.185-9.148-24.027-9.174-33.271-.026L170.144 356.428c-5.525 5.496-14.967 1.602-14.967-6.18v-31.732a32.719 32.719 0 0 1 9.64-23.182l73.663-73.367s.006 0 .006-.006c27.172-27.063 71-27.503 98.699-1.248.323.276 45.43 45.227 69.622 69.335ZM239.799 57.272c27.699 26.255 71.526 25.815 98.698-1.248l73.664-73.373a32.721 32.721 0 0 0 9.639-23.182V-72.25c0-7.782-9.442-11.676-14.967-6.173l-95.461 95.078c-12.634 12.582-33.12 12.582-45.76 0l-35.011-34.871a29.882 29.882 0 0 0-21.087-8.702l-33.106-.013c-7.813-.006-11.75 9.385-6.224 14.888 24.198 24.1 69.291 69.04 69.615 69.315Zm165.326 98.335c-9.039-9.003-9.184-23.438-.527-32.645l41.744-41.628a29.668 29.668 0 0 0 8.723-21.002V27.326c0-7.782-9.442-11.676-14.967-6.173l-62.105 61.855c-31.043 30.918-31.043 81.044 0 111.962l134.093 133.554a32.985 32.985 0 0 0 23.275 9.601h31.854c7.813 0 11.723-9.404 6.198-14.907L405.125 155.607ZM198.984 83.008 64.898-50.532a32.961 32.961 0 0 0-23.288-9.602l-31.828.013c-7.813 0-11.716 9.404-6.198 14.908l162.07 161.418c12.633 12.582 12.633 32.986 0 45.575l-35.012 34.871a29.654 29.654 0 0 0-8.736 21.015v32.993c0 7.782 9.442 11.676 14.967 6.173l62.105-61.855c31.049-30.918 31.049-81.051.006-111.969Z" stroke="#86A3B7"/></svg>