<svg width="40" height="40" viewBox="0 0 40 40" fill="none" xmlns="http://www.w3.org/2000/svg">
<circle cx="20" cy="20" r="20" fill="#C44438"/>
<path fill-rule="evenodd" clip-rule="evenodd" d="M11.9379 11.9379C12.1116 11.7642 12.3471 11.6667 12.5927 11.6667H14.4445C14.6901 11.6667 14.9256 11.7642 15.0993 11.9379C15.2729 12.1115 15.3705 12.347 15.3705 12.5926V20.9259C15.3705 21.2728 15.5643 21.5905 15.8727 21.7492C16.1811 21.9079 16.5523 21.881 16.8346 21.6794L21.8519 18.0956V20.9259C21.8519 21.2728 22.0458 21.5905 22.3542 21.7492C22.6626 21.9079 23.0338 21.881 23.316 21.6794L28.3334 18.0956V27.4074C28.3334 27.653 28.2359 27.8885 28.0622 28.0621C27.8886 28.2358 27.6531 28.3333 27.4075 28.3333H12.5927C12.3471 28.3333 12.1116 28.2358 11.9379 28.0621C11.7643 27.8885 11.6667 27.653 11.6667 27.4074V12.5926C11.6667 12.347 11.7643 12.1115 11.9379 11.9379ZM15.3705 24.6296C14.8591 24.6296 14.4445 25.0442 14.4445 25.5556C14.4445 26.0669 14.8591 26.4815 15.3705 26.4815H16.2964C16.8078 26.4815 17.2223 26.0669 17.2223 25.5556C17.2223 25.0442 16.8078 24.6296 16.2964 24.6296H15.3705ZM20.0001 24.6296C19.4887 24.6296 19.0742 25.0442 19.0742 25.5556C19.0742 26.0669 19.4887 26.4815 20.0001 26.4815H20.926C21.4374 26.4815 21.8519 26.0669 21.8519 25.5556C21.8519 25.0442 21.4374 24.6296 20.926 24.6296H20.0001ZM24.6297 24.6296C24.1183 24.6296 23.7038 25.0442 23.7038 25.5556C23.7038 26.0669 24.1183 26.4815 24.6297 26.4815H25.5556C26.067 26.4815 26.4816 26.0669 26.4816 25.5556C26.4816 25.0442 26.067 24.6296 25.5556 24.6296H24.6297Z" fill="white"/>
</svg>
