<svg width="24" height="24" viewBox="0 0 24 24" fill="none" xmlns="http://www.w3.org/2000/svg">
<path fill-rule="evenodd" clip-rule="evenodd" d="M20.9669 18.8199C20.4911 18.5892 18.0777 17.4357 17.6358 17.271C17.16 17.1062 16.854 17.0073 16.5141 17.5016C16.1742 17.963 15.2565 19.0506 14.9505 19.3801C14.6786 19.6767 14.3727 19.7427 13.8968 19.479C13.387 19.2483 11.8234 18.754 9.91989 17.1062C8.45828 15.8538 7.47254 14.272 7.16662 13.8106C6.89469 13.3162 7.13263 13.0855 7.37057 12.8219C7.6085 12.6242 7.84644 12.2616 8.11837 11.998C8.3563 11.7343 8.45828 11.5366 8.62823 11.207C8.79819 10.9104 8.7302 10.6138 8.59424 10.3831C8.49227 10.1525 7.50653 7.77962 7.09864 6.8239C6.69075 5.90113 6.28286 6.03296 5.97694 6C5.70501 6 5.3651 6 5.02519 6C4.71927 6 4.17542 6.13182 3.73354 6.59321C3.25766 7.08755 2 8.24101 2 10.5809C2 12.9208 3.76753 15.1947 4.00546 15.5243C4.2434 15.8538 7.47254 20.6654 12.4012 22.7417C13.5909 23.236 14.5087 23.5326 15.2225 23.7303C16.4122 24.0928 17.4659 24.0269 18.3156 23.8951C19.2674 23.7633 21.2389 22.7416 21.6468 21.6211C22.0546 20.5336 22.0546 19.5779 21.9187 19.3801C21.8167 19.1824 21.4768 19.0506 20.9669 18.8199Z" fill="#C44438"/>
</svg>
