<svg width="78" height="17" fill="none" xmlns="http://www.w3.org/2000/svg"><path d="M13.168 14.083h-7.74a1.952 1.952 0 0 1-1.949-1.954V9.575c0-1.079.873-1.954 1.949-1.954h7.788a2.714 2.714 0 0 0 2.71-2.719.197.197 0 0 0-.195-.198H4.307A4.31 4.31 0 0 0 0 9.021v3.652a4.314 4.314 0 0 0 4.307 4.32h2.247c.084.002.169.007.255.007h3.844a2.714 2.714 0 0 0 2.71-2.718.197.197 0 0 0-.195-.199Z" fill="#86A3B7"/><path d="M16.527.017H14.28c-.085-.002-.17-.007-.256-.007H10.18a2.714 2.714 0 0 0-2.71 2.718c0 .109.087.199.195.199h7.74c1.076 0 1.949.875 1.949 1.954v2.554a1.952 1.952 0 0 1-1.948 1.954H7.617a2.714 2.714 0 0 0-2.71 2.718c0 .11.087.199.195.199h11.422a4.314 4.314 0 0 0 4.307-4.32V4.334A4.309 4.309 0 0 0 16.527.017ZM42.692 0h-.33a2.932 2.932 0 0 0-2.928 2.936v12.332c0 .124.101.225.224.225h.33a2.932 2.932 0 0 0 2.928-2.936V.225A.226.226 0 0 0 42.692 0Zm-4.898.012h-9.739a4.32 4.32 0 0 0-4.314 4.327v6.825a4.32 4.32 0 0 0 4.314 4.327h2.252c.085.002.17.007.256.007h3.848c1.5 0 2.715-1.219 2.715-2.72a.197.197 0 0 0-.195-.2h-7.754a1.956 1.956 0 0 1-1.954-1.958V9.207c0-.055.046-.101.102-.101h5.343c1.476 0 2.67-1.2 2.67-2.677a.197.197 0 0 0-.196-.199h-7.817a.102.102 0 0 1-.102-.101V4.893c0-1.081.873-1.96 1.954-1.96h6.1c1.5 0 2.715-1.218 2.715-2.72a.2.2 0 0 0-.198-.2Zm14.767 3.454h1.43c.911 0 1.65-.74 1.65-1.655V.378A.377.377 0 0 0 55.263 0h-1.43c-.911 0-1.65.74-1.65 1.654v1.434c0 .208.17.378.377.378ZM49.082 0h-.33a2.932 2.932 0 0 0-2.928 2.936v12.332c0 .124.101.225.224.225h.33a2.932 2.932 0 0 0 2.928-2.936V.225A.226.226 0 0 0 49.082 0Zm23.133 3.466c-1.888 0-3.453.624-4.526 1.809-.969 1.069-1.502 2.573-1.502 4.237 0 3.485 2.689 6.114 6.253 6.114 3.185 0 4.714-1.947 4.996-2.348a.088.088 0 0 0-.015-.114l-.108-.092a3.765 3.765 0 0 0-3.504-.723 5.532 5.532 0 0 1-1.586.227c-1.28 0-2.361-.703-2.863-1.743h7.321A1.32 1.32 0 0 0 78 9.513c-.002-3.392-2.541-6.047-5.785-6.047Zm-2.958 4.859c.39-1.103 1.35-1.99 2.843-1.99 2.02 0 2.601 1.595 2.715 1.99h-5.558ZM55.428 4.208h-.33a2.932 2.932 0 0 0-2.928 2.936v8.124c0 .124.102.225.225.225h.33a2.932 2.932 0 0 0 2.927-2.936V4.433a.224.224 0 0 0-.224-.225Zm9.17-.89h-2.242V.522a.34.34 0 0 0-.135-.27.328.328 0 0 0-.297-.054l-.569.172a3.1 3.1 0 0 0-2.209 2.946h-1.65a.335.335 0 0 0-.334.336v2.43c0 .187.15.337.335.337h1.65v5.134c0 1.611.436 2.748 1.297 3.382.624.46 1.579.689 2.85.689.412 0 .856-.024 1.333-.073a.338.338 0 0 0 .306-.336v-2.28a.333.333 0 0 0-.35-.337c-.46.022-.86.022-1.19.003-.348-.022-.61-.114-.784-.274-.169-.154-.253-.416-.253-.771V6.424h2.242c.186 0 .335-.15.335-.337V3.655a.335.335 0 0 0-.335-.336Z" fill="#86A3B7"/></svg>