<svg width="510" height="475" viewBox="0 0 510 475" fill="none" xmlns="http://www.w3.org/2000/svg">
<path d="M0 286.82C1.29 283.99 2.34 281.02 3.91 278.36C9.29 269.27 17.62 265.09 27.96 265.04C51.86 264.92 75.77 264.89 99.67 265.05C113.17 265.14 122.07 272.08 126.8 284.7H191.06C189.53 282.93 188.49 281.63 187.34 280.41C161.57 252.99 146.21 220.48 142.89 183.15C138.05 128.79 155.59 82.2301 195.39 44.5501C217.85 23.2901 244.49 9.42006 274.77 3.51006C322.4 -5.78994 366.48 3.38006 405.98 31.9101C440.22 56.6401 462.23 89.9801 470.92 131.19C481.45 181.14 471.18 227.15 440.11 267.87C416.32 299.04 384.9 319.19 346.77 328.28C336.58 330.71 326.53 332.26 318.71 340.21C316.3 342.66 312.44 343.7 308.57 345.74C314.71 350.68 320.32 355.5 326.32 359.77C327.55 360.64 330.39 359.86 332.23 359.16C369.1 345.17 405.96 331.14 442.76 316.97C458.04 311.09 472.71 311.24 487.23 319.48C513.75 334.54 517.78 374.98 494.25 394.39C489.35 398.44 483.62 401.9 477.73 404.27C420.72 427.26 363.57 449.93 306.51 472.81C300.56 475.2 295.19 475.07 289.3 472.47C258.06 458.71 226.73 445.15 195.35 431.69C192.26 430.37 188.68 429.66 185.32 429.63C166.56 429.44 147.8 429.6 129.05 429.48C125.79 429.46 123.58 430.29 121.52 433.02C116.56 439.6 109.69 443.19 101.43 443.23C76.7 443.37 51.96 443.4 27.23 443.25C14.52 443.17 5.11 435.97 1.15 423.99C0.85 423.07 0.39 422.2 0.01 421.31C0 376.47 0 331.65 0 286.82ZM341.78 298.5C342.4 298.54 342.58 298.6 342.73 298.56C422.65 277.57 467.5 190.79 433.71 112.51C406.43 49.3201 339.55 17.3701 273.28 34.6401C209.28 51.3301 164.91 112.95 172.78 181.98C176.99 218.86 194.18 249.16 222.92 272.84C225.34 274.84 227.26 274.96 230.03 273.81C244.56 267.75 259.14 261.81 273.74 255.94C291.03 248.99 307.57 250.21 322.69 261.52C334.82 270.6 340.86 283.17 341.78 298.5ZM127.85 399.64H133.44C152.36 399.64 171.28 399.49 190.19 399.76C194.37 399.82 198.82 400.71 202.67 402.34C232.99 415.27 263.23 428.43 293.41 441.68C296.87 443.2 299.72 443.35 303.27 441.92C355.84 420.81 408.48 399.85 461.09 378.83C464.62 377.42 468.29 376.2 471.57 374.31C477.73 370.77 480.7 365.12 479.98 358.06C479.24 350.86 475.24 345.9 468.27 343.41C463 341.53 458.18 343.08 453.32 344.94C413.39 360.18 373.42 375.29 333.56 390.72C325.53 393.83 318.99 392.84 312.42 387.34C299.57 376.59 286.39 366.23 273.36 355.69C261.2 345.86 262.72 333.58 276.89 327.03C285.16 323.21 293.57 319.66 301.7 315.55C311.15 310.77 314.42 300.07 309.65 291C305.19 282.5 295.59 279.36 285.6 283.38C262.09 292.86 238.68 302.58 215.11 311.89C210.77 313.6 205.85 314.54 201.19 314.6C178.46 314.87 155.72 314.72 132.99 314.72H127.85V399.64ZM30.21 295V413.06H97.26V295H30.21Z" fill="#BE2026"/>
</svg>
