<svg width="24" height="24" fill="none" xmlns="http://www.w3.org/2000/svg"><path d="M20.45 20.45h-3.557v-5.569c0-1.328-.023-3.037-1.85-3.037-1.851 0-2.135 1.446-2.135 2.941v5.666H9.353V8.997h3.414v1.565h.047a3.743 3.743 0 0 1 3.369-1.85c3.604 0 4.268 2.371 4.268 5.455l-.001 6.284ZM5.34 7.432a2.063 2.063 0 1 1 0-4.127 2.063 2.063 0 0 1 0 4.127Zm1.777 13.02h-3.56V8.997h3.56v11.454ZM22.222 0H1.77A1.752 1.752 0 0 0 0 1.731v20.537A1.752 1.752 0 0 0 1.77 24h20.452A1.756 1.756 0 0 0 24 22.268V1.73A1.756 1.756 0 0 0 22.222 0" fill="#253E4F"/></svg>