<svg width="20" height="18" fill="none" xmlns="http://www.w3.org/2000/svg"><path fill-rule="evenodd" clip-rule="evenodd" d="M18.967 12.82c-.476-.23-2.89-1.384-3.331-1.549-.476-.165-.782-.264-1.122.23a34.1 34.1 0 0 1-1.563 1.88c-.272.296-.578.362-1.054.098-.51-.23-2.074-.725-3.977-2.373-1.462-1.252-2.447-2.834-2.753-3.295-.272-.495-.034-.725.204-.99.237-.197.475-.56.747-.823.238-.264.34-.461.51-.791.17-.297.102-.593-.034-.824C6.492 4.153 5.507 1.78 5.1.823 4.69-.098 4.283.034 3.977 0h-.952c-.306 0-.85.132-1.291.593C1.258 1.088 0 2.241 0 4.581s1.768 4.614 2.005 4.943c.238.33 3.468 5.141 8.396 7.218 1.19.494 2.108.79 2.822.988 1.19.363 2.243.297 3.093.165.951-.132 2.923-1.153 3.33-2.274.409-1.087.409-2.043.273-2.24-.102-.199-.442-.33-.952-.561Z" fill="#FF3C01"/></svg>