<svg width="40" height="40" fill="none" xmlns="http://www.w3.org/2000/svg"><circle cx="20" cy="20" r="20" fill="#C44438"/><path fill-rule="evenodd" clip-rule="evenodd" d="M11.938 11.938a.926.926 0 0 1 .655-.271h1.851a.926.926 0 0 1 .926.926v8.333a.926.926 0 0 0 1.465.753l5.017-3.583v2.83a.926.926 0 0 0 1.464.753l5.017-3.583v9.311a.926.926 0 0 1-.925.926H12.592a.926.926 0 0 1-.926-.926V12.593c0-.246.097-.482.27-.655ZM15.37 24.63a.926.926 0 0 0 0 1.852h.926a.926.926 0 0 0 0-1.852h-.925Zm4.63 0a.926.926 0 0 0 0 1.852h.926a.926.926 0 0 0 0-1.852H20Zm4.63 0a.926.926 0 0 0 0 1.852h.926a.926.926 0 1 0 0-1.852h-.926Z" fill="#fff"/></svg>