<svg width="577" height="277" viewBox="0 0 577 277" fill="none" xmlns="http://www.w3.org/2000/svg">
<path d="M406.807 290.048C412.326 295.551 408.396 304.935 400.582 304.935H367.503C359.59 304.935 352.001 301.803 346.403 296.234L305.167 255.164L305.141 255.19C295.956 246.042 281.114 246.016 271.87 255.164L170.144 356.428C164.619 361.924 155.177 358.03 155.177 350.248V318.516C155.177 309.821 158.645 301.481 164.817 295.334L238.48 221.967C238.48 221.967 238.486 221.967 238.486 221.961C265.658 194.898 309.486 194.458 337.185 220.713C337.508 220.989 382.615 265.94 406.807 290.048ZM239.799 57.272C267.498 83.5271 311.325 83.0871 338.497 56.0243L412.161 -17.3494C418.332 -23.4962 421.8 -31.8363 421.8 -40.5311V-72.25C421.8 -80.0319 412.358 -83.9262 406.833 -78.423L311.372 16.6548C298.738 29.2373 278.252 29.2373 265.612 16.6548L230.601 -18.2163C225.009 -23.7851 217.427 -26.9176 209.514 -26.9176L176.408 -26.9307C168.595 -26.9373 164.658 -17.5464 170.184 -12.0432C194.382 12.0579 239.475 56.9962 239.799 57.272ZM405.125 155.607C396.086 146.604 395.941 132.169 404.598 122.962L446.342 81.3337C451.926 75.7648 455.065 68.2062 455.065 60.3323V27.3263C455.065 19.5443 445.623 15.65 440.098 21.1532L377.993 83.0083C346.95 113.926 346.95 164.052 377.993 194.97L512.086 328.524C518.258 334.671 526.631 338.125 535.361 338.125H567.215C575.028 338.125 578.938 328.721 573.413 323.218L405.125 155.607ZM198.984 83.0083L64.8979 -50.5327C58.7198 -56.6861 50.3459 -60.1403 41.6095 -60.1338L9.7824 -60.1206C1.96904 -60.1206 -1.93435 -50.7166 3.58446 -45.2134L165.654 116.205C178.287 128.787 178.287 149.191 165.654 161.78L130.642 196.651C125.044 202.227 121.906 209.785 121.906 217.666V250.659C121.906 258.441 131.348 262.335 136.873 256.832L198.978 194.977C230.027 164.059 230.027 113.926 198.984 83.0083Z" stroke="#86A3B7"/>
</svg>
