<svg width="1182" height="540" viewBox="0 0 1182 540" fill="none" xmlns="http://www.w3.org/2000/svg">
<path d="M833.786 581.021C845.111 592.353 837.047 611.676 821.013 611.676H753.127C736.89 611.676 721.315 605.226 709.827 593.759L625.204 509.191L625.149 509.246C606.301 490.409 575.842 490.355 556.871 509.191L348.113 717.703C336.774 729.021 317.398 721.003 317.398 704.979V639.64C317.398 621.736 324.515 604.563 337.18 591.907L488.35 440.837C488.35 440.837 488.363 440.837 488.363 440.823C544.125 385.099 634.067 384.193 690.911 438.254C691.574 438.822 784.14 531.381 833.786 581.021ZM491.056 101.715C547.9 155.776 637.842 154.87 693.603 99.1454L844.773 -51.9377C857.438 -64.5944 864.556 -81.7675 864.556 -99.6709V-164.983C864.556 -181.007 845.179 -189.025 833.84 -177.694L637.936 18.0801C612.011 43.9885 569.97 43.9885 544.03 18.0801L472.18 -53.7226C460.706 -65.1894 445.145 -71.6395 428.908 -71.6395L360.968 -71.6665C344.934 -71.68 336.855 -52.3433 348.195 -41.0118C397.854 8.61457 490.393 101.147 491.056 101.715ZM830.335 304.195C811.784 285.657 811.487 255.935 829.253 236.977L914.918 151.26C926.379 139.793 932.82 124.229 932.82 108.016V40.0536C932.82 24.0298 913.444 16.0112 902.105 27.3428L774.655 154.708C710.95 218.37 710.95 321.585 774.655 385.247L1049.84 660.247C1062.5 672.904 1079.69 680.017 1097.6 680.017H1162.97C1179.01 680.017 1187.03 660.653 1175.69 649.322L830.335 304.195ZM407.298 154.708L132.13 -120.265C119.451 -132.935 102.266 -140.048 84.3377 -140.035L19.023 -140.007C2.98863 -140.007 -5.02179 -120.644 6.30375 -109.312L338.899 223.062C364.824 248.971 364.824 290.984 338.899 316.906L267.048 388.709C255.56 400.189 249.12 415.753 249.12 431.98V499.915C249.12 515.939 268.496 523.958 279.835 512.626L407.285 385.261C471.003 321.598 471.003 218.37 407.298 154.708Z" stroke="#86A3B7"/>
</svg>
